HIERARCHY
ROOT root
{
  OFFSET 0 95.9893 0
  CHANNELS 6 Xposition Yposition Zposition Zrotation Xrotation Yrotation
  JOINT torso_1
  {
    OFFSET 0 5.22546 -1.18466
    CHANNELS 6 Xposition Yposition Zposition Zrotation Xrotation Yrotation
    JOINT torso_2
    {
      OFFSET 0 5.77894 1.10239
      CHANNELS 6 Xposition Yposition Zposition Zrotation Xrotation Yrotation
      JOINT torso_3
      {
        OFFSET -1.0557e-17 6.16289 0.118334
        CHANNELS 6 Xposition Yposition Zposition Zrotation Xrotation Yrotation
        JOINT torso_4
        {
          OFFSET -1.13649e-17 6.69386 -0.456341
          CHANNELS 6 Xposition Yposition Zposition Zrotation Xrotation Yrotation
          JOINT torso_5
          {
            OFFSET -2.02997e-17 7.82529 -1.54945
            CHANNELS 6 Xposition Yposition Zposition Zrotation Xrotation Yrotation
            JOINT torso_6
            {
              OFFSET -2.60628e-17 9.77186 -0.940923
              CHANNELS 6 Xposition Yposition Zposition Zrotation Xrotation Yrotation
              JOINT torso_7
              {
                OFFSET -2.98794e-17 10.8563 1.62248
                CHANNELS 6 Xposition Yposition Zposition Zrotation Xrotation Yrotation
                JOINT neck_1
                {
                  OFFSET -1.32927e-17 4.92478 0.736013
                  CHANNELS 6 Xposition Yposition Zposition Zrotation Xrotation Yrotation
                  JOINT neck_2
                  {
                    OFFSET -1.86396e-17 4.96043 0.433981
                    CHANNELS 6 Xposition Yposition Zposition Zrotation Xrotation Yrotation
                    JOINT head
                    {
                      OFFSET -2.06766e-17 4.97002 0.787173
                      CHANNELS 6 Xposition Yposition Zposition Zrotation Xrotation Yrotation
                      End Site
                      {
                        OFFSET 0 0.1 0
                      }
                    }
                  }
                }
                JOINT l_shoulder
                {
                  OFFSET 1.26863 -7.82717 7.75148
                  CHANNELS 6 Xposition Yposition Zposition Zrotation Xrotation Yrotation
                  JOINT l_up_arm
                  {
                    OFFSET 13.3291 3.34342 -3.36319
                    CHANNELS 6 Xposition Yposition Zposition Zrotation Xrotation Yrotation
                    JOINT l_low_arm
                    {
                      OFFSET 30.0522 0.0615366 0.141
                      CHANNELS 6 Xposition Yposition Zposition Zrotation Xrotation Yrotation
                      JOINT l_hand
                      {
                        OFFSET 24.9344 0.0510561 0.116988
                        CHANNELS 6 Xposition Yposition Zposition Zrotation Xrotation Yrotation
                        End Site
                        {
                          OFFSET 0.1 0 0
                        }
                      }
                    }
                  }
                }
                JOINT r_shoulder
                {
                  OFFSET -1.26863 -7.82715 7.75138
                  CHANNELS 6 Xposition Yposition Zposition Zrotation Xrotation Yrotation
                  JOINT r_up_arm
                  {
                    OFFSET -13.3291 3.34342 -3.36319
                    CHANNELS 6 Xposition Yposition Zposition Zrotation Xrotation Yrotation
                    JOINT r_low_arm
                    {
                      OFFSET -30.0522 0.0615366 0.141
                      CHANNELS 6 Xposition Yposition Zposition Zrotation Xrotation Yrotation
                      JOINT r_hand
                      {
                        OFFSET -24.9344 0.0510559 0.116988
                        CHANNELS 6 Xposition Yposition Zposition Zrotation Xrotation Yrotation
                        End Site
                        {
                          OFFSET -0.1 0 0
                        }
                      }
                    }
                  }
                }
              }
            }
          }
        }
      }
    }
  }
  JOINT l_up_leg
  {
    OFFSET 9.50369 -4.32711 2.09145
    CHANNELS 6 Xposition Yposition Zposition Zrotation Xrotation Yrotation
    JOINT l_low_leg
    {
      OFFSET -0.876987 -39.8926 -0.674123
      CHANNELS 6 Xposition Yposition Zposition Zrotation Xrotation Yrotation
      JOINT l_foot
      {
        OFFSET -2.39345 -41.5694 -6.22357
        CHANNELS 6 Xposition Yposition Zposition Zrotation Xrotation Yrotation
        JOINT l_toes
        {
          OFFSET 0.801613 -10.1701 12.8571
          CHANNELS 6 Xposition Yposition Zposition Zrotation Xrotation Yrotation
          End Site
          {
            OFFSET 0 0 0.1
          }
        }
      }
    }
  }
  JOINT r_up_leg
  {
    OFFSET -9.50369 -4.32711 2.09145
    CHANNELS 6 Xposition Yposition Zposition Zrotation Xrotation Yrotation
    JOINT r_low_leg
    {
      OFFSET 0.876987 -39.8926 -0.674123
      CHANNELS 6 Xposition Yposition Zposition Zrotation Xrotation Yrotation
      JOINT r_foot
      {
        OFFSET 2.39345 -41.5694 -6.22357
        CHANNELS 6 Xposition Yposition Zposition Zrotation Xrotation Yrotation
        JOINT r_toes
        {
          OFFSET -0.801613 -10.1701 12.8571
          CHANNELS 6 Xposition Yposition Zposition Zrotation Xrotation Yrotation
          End Site
          {
            OFFSET 0 0 0.1
          }
        }
      }
    }
  }
}
MOTION
Frames: 4
Frame Time: 0.016667
0 95.9893 0 -0 0 -0 0 5.22546 -1.18466 -0 0 -0 0 5.77894 1.10239 -0 0 -0 -1.0557e-17 6.16289 0.118334 -0 0 -0 -1.13649e-17 6.69386 -0.456341 -0 0 -0 -2.02997e-17 7.82529 -1.54945 -0 0 -0 -2.60628e-17 9.77186 -0.940923 -0 0 -0 -2.98794e-17 10.8563 1.62248 -0 0 -0 -1.32927e-17 4.92478 0.736013 -0 0 -0 -1.86396e-17 4.96043 0.433981 -0 0 -0 -2.06766e-17 4.97002 0.787173 -0 0 -0 1.26863 -7.82717 7.75148 -0 0 -0 13.3291 3.34342 -3.36319 -0 0 -0 30.0522 0.0615366 0.141 -0 0 -0 24.9344 0.0510561 0.116988 -0 0 -0 -1.26863 -7.82715 7.75138 -0 0 -0 -13.3291 3.34342 -3.36319 -0 0 -0 -30.0522 0.0615366 0.141 -0 0 -0 -24.9344 0.0510559 0.116988 -0 0 -0 9.50369 -4.32711 2.09145 -0 0 -0 -0.876987 -39.8926 -0.674123 -0 0 -0 -2.39345 -41.5694 -6.22357 -0 0 -0 0.801613 -10.1701 12.8571 -0 0 -0 -9.50369 -4.32711 2.09145 -0 0 -0 0.876987 -39.8926 -0.674123 -0 0 -0 2.39345 -41.5694 -6.22357 -0 0 -0 -0.801613 -10.1701 12.8571 -0 0 -0 
-119.106 95.5303 -1075.32 0.985023 -0.452129 4.47316 0 5.22546 -1.18466 -0.912837 1.93966 -0.502947 0 5.77894 1.10239 -0.433927 1.90278 -0.652711 -1.0557e-17 6.16289 0.118334 -0.141294 2.09348 -0.539706 -1.13649e-17 6.69386 -0.456341 0.122133 2.15265 -0.488798 -2.02997e-17 7.82529 -1.54945 0.31983 1.69074 -0.567537 -2.60628e-17 9.77186 -0.940923 0.482916 1.47032 -0.981377 -2.98794e-17 10.8563 1.62248 -0.0287189 0.88427 0.123857 -1.32927e-17 4.92478 0.736013 1.09796 -0.0446603 4.92524 -1.86396e-17 4.96043 0.433981 0.0521379 -1.78835 2.1254 -2.06766e-17 4.97002 0.787173 -1.57382 0.0901487 2.67257 1.26863 -7.82717 7.75148 -0.186141 3.50815 -2.883 13.3291 3.34342 -3.36319 -78.3241 31.4735 -18.3517 30.0522 0.0615366 0.141 2.81934 -0.324209 -13.7085 24.9344 0.0510561 0.116988 1.91117 -30.2014 -4.46024 -1.26863 -7.82715 7.75138 6.39275 5.53543 4.12384 -13.3291 3.34342 -3.36319 76.2713 18.2177 6.72579 -30.0522 0.0615366 0.141 -2.01072 -0.160641 9.73301 -24.9344 0.0510559 0.116988 2.63138 -25.8046 6.28753 9.50369 -4.32711 2.09145 -1.3362 -4.98516 -15.6033 -0.876987 -39.8926 -0.674123 -2.01317 7.50191 0.000863194 -2.39345 -41.5694 -6.22357 0.467016 -2.05702 15.2556 0.801613 -10.1701 12.8571 1.14218e-16 -6.67949e-16 -1.98037e-16 -9.50369 -4.32711 2.09145 2.07229 -2.41256 16.2438 0.876987 -39.8926 -0.674123 2.01737 7.51746 -0.00114065 2.39345 -41.5694 -6.22357 -5.52759 -2.37122 -14.5563 -0.801613 -10.1701 12.8571 -6.00124e-16 -3.85884e-16 -1.25795e-14 
-119.05 95.5629 -1075.38 0.861433 -0.494579 4.59003 0 5.22546 -1.18466 -0.835829 1.97463 -0.463081 0 5.77894 1.10239 -0.377482 1.9271 -0.606651 -1.0557e-17 6.16289 0.118334 -0.104526 2.10845 -0.493767 -1.13649e-17 6.69386 -0.456341 0.139382 2.15085 -0.444116 -2.02997e-17 7.82529 -1.54945 0.325514 1.6722 -0.524811 -2.60628e-17 9.77186 -0.940923 0.483665 1.4443 -0.935293 -2.98794e-17 10.8563 1.62248 -0.0280046 0.882084 0.117051 -1.32927e-17 4.92478 0.736013 1.13229 -0.206145 5.09365 -1.86396e-17 4.96043 0.433981 0.0475411 -1.76941 2.20294 -2.06766e-17 4.97002 0.787173 -1.58773 0.16397 2.74109 1.26863 -7.82717 7.75148 -0.41889 3.5963 -2.9505 13.3291 3.34342 -3.36319 -78.7958 30.3882 -17.6202 30.0522 0.0615366 0.141 2.66784 -0.289128 -12.9596 24.9344 0.0510561 0.116988 1.99148 -29.2879 -4.47334 -1.26863 -7.82715 7.75138 6.41957 5.54659 4.0622 -13.3291 3.34342 -3.36319 76.301 18.055 6.91966 -30.0522 0.0615366 0.141 -1.96105 -0.152493 9.49048 -24.9344 0.0510559 0.116988 2.60025 -25.3775 6.33225 9.50369 -4.32711 2.09145 -1.25623 -5.02368 -15.5903 -0.876987 -39.8926 -0.674123 -2.02267 7.53705 0.00149301 -2.39345 -41.5694 -6.22357 0.492314 -1.96541 15.2457 0.801613 -10.1701 12.8571 1.15886e-16 -6.67877e-16 -1.98141e-16 -9.50369 -4.32711 2.09145 2.14566 -2.46794 16.1648 0.876987 -39.8926 -0.674123 2.03089 7.56748 -0.00204262 2.39345 -41.5694 -6.22357 -5.41279 -2.18796 -14.5348 -0.801613 -10.1701 12.8571 -9.96025e-16 -3.68779e-16 -1.25671e-14 
-118.994 95.5768 -1075.46 0.723437 -0.524077 4.70808 0 5.22546 -1.18466 -0.748703 2.01812 -0.424621 0 5.77894 1.10239 -0.312631 1.9549 -0.561184 -1.0557e-17 6.16289 0.118334 -0.0618719 2.12196 -0.44861 -1.13649e-17 6.69386 -0.456341 0.160328 2.13842 -0.40061 -2.02997e-17 7.82529 -1.54945 0.332115 1.63798 -0.483796 -2.60628e-17 9.77186 -0.940923 0.482209 1.39746 -0.889523 -2.98794e-17 10.8563 1.62248 -0.027658 0.88037 0.108854 -1.32927e-17 4.92478 0.736013 1.15974 -0.324641 5.21613 -1.86396e-17 4.96043 0.433981 0.0377658 -1.76623 2.25924 -2.06766e-17 4.97002 0.787173 -1.60722 0.190086 2.81251 1.26863 -7.82717 7.75148 -0.646559 3.68784 -3.01754 13.3291 3.34342 -3.36319 -79.2635 29.2504 -16.807 30.0522 0.0615366 0.141 2.51704 -0.256272 -12.2163 24.9344 0.0510561 0.116988 2.04811 -28.2526 -4.50995 -1.26863 -7.82715 7.75138 6.37005 5.54216 3.97555 -13.3291 3.34342 -3.36319 76.3843 17.9143 7.07044 -30.0522 0.0615366 0.141 -1.91192 -0.144646 9.25077 -24.9344 0.0510559 0.116988 2.58214 -24.9445 6.42936 9.50369 -4.32711 2.09145 -1.16679 -5.08115 -15.6148 -0.876987 -39.8926 -0.674123 -2.03527 7.58366 0.0023374 -2.39345 -41.5694 -6.22357 0.558522 -1.95054 15.2364 0.801613 -10.1701 12.8571 1.15886e-16 -6.67877e-16 -1.98141e-16 -9.50369 -4.32711 2.09145 2.23151 -2.46436 16.0774 0.876987 -39.8926 -0.674123 2.00943 7.48808 -0.000616391 2.39345 -41.5694 -6.22357 -5.32351 -2.06191 -14.5198 -0.801613 -10.1701 12.8571 -1.39359e-15 -3.51602e-16 -1.25423e-14 
